# xmcd
#
# Track frame offsets:
#	150
#	14151
#	32963
#	52353
#	71213
#	87932
#	100780
#	115484
#
# Disc length: 1728 seconds
#
# Revision: 1
# Processed by: cddbd v1.5.2PL0 Copyright (c) Steve Scherf et al.
# Submitted via: audiograbber 1.83.01
#
DISCID=7806be08
DTITLE=Palmtree - Palmtree
DYEAR=2010
DGENRE=Pop
TTITLE0=Get away
TTITLE1=Don't let go
TTITLE2=Seven Fifteen
TTITLE3=Watching you
TTITLE4=Doesn't matter
TTITLE5=On and On
TTITLE6=Thinking about yourself
TTITLE7=My own life
EXTD=
EXTT0=
EXTT1=
EXTT2=
EXTT3=
EXTT4=
EXTT5=
EXTT6=
EXTT7=
PLAYORDER=
